<svg width="512" height="512" xmlns="http://www.w3.org/2000/svg">
  <g stroke="none" id="svg_7">
   <g stroke="none" transform="matrix(4.126970611852372,0,0,4.132777501153927,-115.65095657298536,-468.6068536653026) " id="svg_5">
    <path stroke="none" id="svg_6" d="m89.93235,113.88775c8.31,0 16.24,1.66 23.49,4.66c7.53,3.12 14.29,7.68 19.96,13.34s10.22,12.43 13.34,19.96c3,7.24 4.66,15.18 4.66,23.49c0,8.31 -1.66,16.24 -4.66,23.49c-3.12,7.53 -7.68,14.29 -13.34,19.96c-5.66,5.66 -12.43,10.22 -19.96,13.34c-7.24,3 -15.18,4.66 -23.49,4.66c-8.31,0 -16.24,-1.66 -23.49,-4.66c-7.53,-3.12 -14.29,-7.68 -19.96,-13.34c-5.65,-5.68 -10.21,-12.45 -13.33,-19.97c-3,-7.25 -4.66,-15.18 -4.66,-23.49c0,-8.31 1.66,-16.24 4.66,-23.49c3.12,-7.52 7.68,-14.29 13.34,-19.95c5.66,-5.66 12.43,-10.22 19.96,-13.34c7.24,-3 15.17,-4.66 23.48,-4.66l0,0zm-9.29,70.86l-9.84,0l-1.41,4.63l-8.86,0l10.58,-28.1l9.5,0l10.53,28.1l-9.09,0l-1.41,-4.63l0,0zm-1.84,-6.08l-3.07,-10.1l-3.08,10.1l6.15,0l0,0zm13.96,-17.39l12.91,0c2.54,0 4.6,0.35 6.16,1.03c1.56,0.69 2.86,1.68 3.89,2.97c1.02,1.3 1.76,2.79 2.22,4.51c0.46,1.71 0.69,3.53 0.69,5.44c0,3 -0.34,5.33 -1.03,6.99c-0.68,1.65 -1.63,3.04 -2.85,4.16c-1.22,1.12 -2.52,1.86 -3.91,2.24c-1.9,0.51 -3.63,0.77 -5.17,0.77l-12.91,0l0,-28.11l0,0zm8.67,6.36l0,15.35l2.13,0c1.82,0 3.11,-0.2 3.89,-0.6c0.77,-0.41 1.37,-1.11 1.81,-2.11c0.44,-1.01 0.65,-2.63 0.65,-4.88c0,-2.98 -0.48,-5.01 -1.46,-6.11c-0.97,-1.1 -2.59,-1.65 -4.85,-1.65l-2.17,0l0,0zm29.25,-22.21l-7.35,-8.06c-4.3,-3.8 -9.25,-6.86 -14.65,-9.02c-5.78,-2.31 -12.11,-3.57 -18.74,-3.57c-6.84,0 -13.36,1.36 -19.31,3.82c-6.18,2.56 -11.74,6.32 -16.41,10.98c-4.66,4.66 -8.42,10.23 -10.98,16.41c-2.46,5.94 -3.82,12.46 -3.82,19.31c0,6.62 1.27,12.93 3.57,18.71c2.16,5.42 5.23,10.38 9.02,14.68l8.06,7.37c3.99,2.93 8.43,5.29 13.18,6.95c5.22,1.83 10.83,2.82 16.68,2.82c6.84,0 13.36,-1.36 19.31,-3.82c6.18,-2.56 11.74,-6.32 16.41,-10.98c4.66,-4.66 8.42,-10.23 10.98,-16.41c2.46,-5.94 3.82,-12.46 3.82,-19.31c0,-5.87 -0.99,-11.48 -2.81,-16.69c-1.67,-4.76 -4.03,-9.19 -6.96,-13.19l0,0z"/>
   </g>
  </g>
</svg>